<svg xmlns="http://www.w3.org/2000/svg" viewBox="0 0 300 160" width="100%" height="100%">
  <rect width="300" height="160" fill="#1b4d2e" rx="4"/>
  <!-- Stairs Going Up to Right -->
  <path d="M40 112 L65 112 L65 88 L92 88 L92 64 L120 64 L120 42 L145 42" fill="none" stroke="#ffffff" stroke-width="12" stroke-linejoin="miter"/>
  <!-- Arrow pointing Up-Right -->
  <polygon points="128,42 100,52 118,74" fill="#ffffff"/>
  <line x1="88" y1="92" x2="118" y2="62" stroke="#ffffff" stroke-width="10"/>
  
  <!-- Door frame on right -->
  <polygon points="250,22 182,22 182,138 250,138" fill="#ffffff"/>
  <polygon points="242,30 190,30 190,130 242,130" fill="#1b4d2e"/>
  <!-- Head -->
  <circle cx="198" cy="40" r="11" fill="#ffffff"/>
  <!-- Torso & Arms -->
  <path d="M204 52 L188 55 L174 76 L182 80 L192 65 L206 62 Z" fill="#ffffff"/>
  <path d="M206 53 L222 68 L232 64 L220 50 Z" fill="#ffffff"/>
  <!-- Body -->
  <path d="M208 53 L198 85 L204 90 L215 60 Z" fill="#ffffff"/>
  <!-- Leg forward (left) -->
  <path d="M198 85 L178 108 L158 126 L166 132 L186 114 L206 92 Z" fill="#ffffff"/>
  <!-- Leg back (right) -->
  <path d="M212 84 L228 106 L250 114 L247 104 L232 98 L218 78 Z" fill="#ffffff"/>

</svg>
